<?xml version="1.0" encoding="utf-8"?>
<!-- Generator: Adobe Illustrator 22.1.0, SVG Export Plug-In . SVG Version: 6.00 Build 0)  -->
<svg version="1.1" id="レイヤー_1" xmlns="http://www.w3.org/2000/svg" xmlns:xlink="http://www.w3.org/1999/xlink" x="0px"
	 y="0px" viewBox="0 0 297 134.7" style="enable-background:new 0 0 297 134.7;" xml:space="preserve">
<style type="text/css">
	.st0{fill:#1D2088;}
	.st1{fill:#FFFFFF;}
	.st2{font-family:'LucidaHandwriting-Italic';}
	.st3{font-size:25.0823px;}
</style>
<g>
	<path class="st0" d="M18,86.1c8.1-6.7,17.7-16.3,21.5-26.1c-1.7,0.3-3,0.4-4.4,0.4C9.1,60.4,0,43.9,0,32.4
		C0,14.1,19.1,1.9,25.3,1.9c8,0,21.7,9.8,24.3,22.4C64,2.7,67.2,1.1,68.6,1.1c3.6,0,16,9,16,30.8c0,1.8-0.1,3.6-0.3,5.6h0.3
		c5.8-14.6,13.4-25,23-37.5l1.5,0.6c-0.3,0.4-0.4,0.6-0.4,1c0,0.8,16,11.3,16.5,11.3c0.6,0,1.1-0.1,1.6-0.2l0.8,1
		c-3.9,1.9-9,21.2-9,38.8c0,15.4,6.1,26.8,9.7,26.8c1,0,1.6-0.4,6.8-6.4l1.6,1.2c-4.2,5.2-8.6,10.4-13,16.2
		c-10.1-7.3-15.3-20.6-15.3-37.7c0-11,2.3-22.2,6.3-33.7c-3.4-1.7-6.9-3.6-10.3-5.8C87.8,28.3,84,43,84,69.7c0,4.7,0.4,9.6,0.6,14.3
		c-4.1,2.3-7.9,4.7-11.2,7c1-8.9,2.4-28.3,2.4-48c0-26.4-7.6-31.8-11-31.8c-6.2,0-13.6,17.7-13.7,20.6c-0.1,3.5-1.4,15.4-5.5,24.5
		c9.2-2.7,10.7-5.9,10.7-8.4c0-1.6-0.6-3.3-1.7-4.7c4.4-1.1,7.2-2.4,9.9-5c0.9,3.6,2.7,6.8,5.5,10.2c-4,2.1-8.3,4.2-12.2,6.3
		c-2.9,1.5-7.6,3.2-13.6,4.5c-3.5,6.2-6.8,11.3-12,16.5l0.2,0.2c1.1-1.2,3-1.6,5.1-1.6c3.5,0,13.8,2.6,25.5,8.1
		c-1.9,2.7-3.6,5.6-5.3,8.4c-9.1-5.5-19.3-9.2-27.6-9.2c-3.5,0-6.5,2.3-10.6,5.9L18,86.1z M2.2,32.4c0,13.9,11.8,25.8,32,25.8
		c2.1,0,4-0.2,6.1-0.6c2.4-7.4,3.4-13.5,3.4-19.4c0-19.3-14.1-27.5-24-27.5C9.7,10.7,2.2,21.6,2.2,32.4"/>
	<path class="st0" d="M162.4,88.8c0.2-0.2,0.5-0.5,0.5-0.7c0-0.2-1.2-1-10.7-6.9c-8.7-5.5-12.6-12.2-12.6-18.9
		c0-11.5,8.2-21,24.1-35l1.3,0.7c-0.3,0.2-0.5,0.5-0.5,0.7c0,0.2,1.2,1,10.8,6.8c6.8,4.1,13,10.7,13,18.1c0,9.8-7.8,20.7-24.6,36
		L162.4,88.8z"/>
	<path class="st0" d="M225.7,37.7c-5.7,7.6-13.1,19.2-15.2,28.2c-0.8,3.8-1.1,13.6-1.2,17.5c-3.3,1.8-6.1,3.5-9.1,6.1
		c1.9-8.6,2.8-37.1,3.1-47.8c-2.3-1.2-3.6-2.6-5.3-4l-4.4,4.6l-1.7-1.5c4.4-4.4,7.6-7.9,11.3-13c2.9,3.5,5.9,5.8,9.9,7.4
		c-1.7,2.3-2.4,10.9-4,23.8h0.2c3.5-8.4,17.2-28.6,21.7-31.9l1.2,1.1l-0.6,1.1l9.8,7.4h0.9v2.2h-1c-1.6,2.3-3.9,16.5-3.9,28
		c0,6.9,1.4,10.7,7,13.5l4.8-5.1l1.7,1.3c-3.4,2.9-6.4,7.3-10.7,12.9c-8.1-5.2-10.2-9.1-10.2-20.5c0-5.8,1.2-20.1,2.1-26.5
		L225.7,37.7z"/>
	<path class="st0" d="M254.3,41.2c3.8-5.3,7.4-9.7,11-14.1l1.2,0.2c0,0.2-0.1,0.5-0.1,0.6c0,1.7,14.5,7,21.7,7
		c0.7,0,1.7-0.5,2.4-1.3l1.7,0.6c-5.7,11.4-15.5,24.8-31,45.5l0.2,0.2c1.6-1.5,3.1-2.4,6.2-2.4c4.6,0,16.8,3.9,20.9,3.9
		c2.2,0,3.1-0.6,6.7-4.9l1.8,1.1c-6.9,10.3-8.8,11.8-11.5,11.8c-4.5,0-20.4-5.3-24.4-5.3c-2.1,0-4.4,1.2-7.7,5.1l-2.5-1.1
		c11.5-15.6,22.8-32.6,30.1-47.2l-0.2-0.2c-1.1,0.6-2.2,0.8-3.4,0.8c-2.2,0-12-4.4-14.5-4.4c-1.3,0-3.2,0.6-6.7,5.2L254.3,41.2z"/>
	<path class="st1" d="M178.2,62.5c0,6.4-5.9,11.6-13.2,11.6c-7.3,0-13.2-5.2-13.2-11.6c0-6.4,5.9-11.6,13.2-11.6
		C172.3,50.9,178.2,56.1,178.2,62.5"/>
	<path class="st1" d="M159.2,48c1.5,2.9,0,6.6-3.3,8.3c-3.3,1.7-7.1,0.7-8.6-2.2c-1.5-2.9,0-6.6,3.3-8.3
		C153.9,44.1,157.8,45.1,159.2,48"/>
	<path class="st1" d="M170.8,48c-1.5,2.9,0,6.6,3.3,8.3c3.3,1.7,7.1,0.7,8.6-2.2c1.5-2.9,0-6.6-3.3-8.3
		C176.1,44.1,172.3,45.1,170.8,48"/>
</g>
<text transform="matrix(1 0 0 1 25.1592 126.5215)" class="st2 st3">100% handmade</text>
</svg>
